<svg id="Layer_1" data-name="Layer 1" xmlns="http://www.w3.org/2000/svg" viewBox="0 0 222.61 353.88"><defs><style>.cls-1{fill:none;stroke:#fff;stroke-miterlimit:10;stroke-width:3px;}.cls-2{fill:#fff;}</style></defs><text x="-167.87" y="-156.95"/><text x="-167.87" y="-156.95"/><circle class="cls-1" cx="95.63" cy="196.55" r="90"/><path class="cls-2" d="M178.31,368.35c10.7-.38,21-4.34,29.76-10.32,9.12-6.2,16.55-14.37,23.09-23.17,3.78-5.09,7.25-10.4,10.64-15.76l-4.66-1.26a516.73,516.73,0,0,1-5.95,52.65q-2.16,13.13-5,26.12c-.88,4-1.7,8.06-2.82,12-.78,2.78-1.79,5.76-3.73,8a7.37,7.37,0,0,1-6.87,2.72,10.86,10.86,0,0,1-6.67-4.64c-3.94-5.84-1.51-13,2.08-18.4,4.17-6.26,10.26-11.26,16.19-15.79,6.18-4.73,12.62-9.16,18.48-14.31A81.54,81.54,0,0,0,267,328.59c.54-1.76,1-3.55,1.41-5.35.71-3.13-3.92-4.43-4.82-1.33a134.12,134.12,0,0,0-4.69,24.72q-.6,6.28-.59,12.6c0,2.06.06,4.13.16,6.19a13.67,13.67,0,0,0,1.15,5.86c1.77,3.33,5.65,4,8.9,2.6,3.4-1.42,5.69-4.13,7.79-7a72.8,72.8,0,0,0,9.61-19.56,202.22,202.22,0,0,0,6-24.14l-4.82-1.33a113.94,113.94,0,0,0-1.59,24.12,118.11,118.11,0,0,0,1.18,12c.3,2,.64,3.91,1,5.86a17.21,17.21,0,0,0,1.58,5,6.9,6.9,0,0,0,8.23,3.33c3.09-1,5.48-3.69,7.13-6.41,1.88-3.09,3-6.78,4.17-10.19,1.25-3.65,2.33-7.37,3.24-11.12A129.46,129.46,0,0,0,315.61,318l-3.17,2.41c10.95,2.88,23.41-2.63,28.42-12.83a2.56,2.56,0,0,0-.89-3.42,2.52,2.52,0,0,0-3.42.89,20.24,20.24,0,0,1-22.78,10.54,2.53,2.53,0,0,0-3.16,2.41A123.48,123.48,0,0,1,302.28,359a18.44,18.44,0,0,1-4,6.87,5.78,5.78,0,0,1-2.48,1.58,1.77,1.77,0,0,1-.82,0,2.18,2.18,0,0,1-1-.7,9,9,0,0,1-1.27-3.79c-.36-1.7-.68-3.42-1-5.14a103.67,103.67,0,0,1-1.13-10.68,107.59,107.59,0,0,1,1.35-24,2.58,2.58,0,0,0-1.75-3.08,2.52,2.52,0,0,0-3.07,1.75c-2.64,12.88-5.33,26.17-12,37.67a36.38,36.38,0,0,1-5.45,7.68,9.08,9.08,0,0,1-3.1,2.14c-.85.33-1.69.52-2.26,0-.93-.87-.78-2.73-.84-3.88-.09-1.91-.15-3.81-.16-5.71q0-5.71.44-11.42a127.73,127.73,0,0,1,4.66-25.05l-4.82-1.33a76.7,76.7,0,0,1-22.86,39.44c-11.85,10.87-27.21,18.39-36.52,31.87-4.38,6.34-7,14.68-3.53,22,2.84,6,10.11,10.9,16.89,8.61,7-2.38,9.71-9.89,11.29-16.46,2.16-9,4-18.06,5.69-27.15a530.09,530.09,0,0,0,7.13-55.58c.16-2.27.32-4.55.46-6.82.16-2.6-3.41-3.23-4.66-1.26-10.86,17.14-23.49,35.26-43,43.18a47.65,47.65,0,0,1-16.16,3.59c-3.21.11-3.22,5.11,0,5Z" transform="translate(-167.87 -156.95)"/><path class="cls-2" d="M241.78,293.41c3.22,0,3.23-5,0-5s-3.22,5,0,5Z" transform="translate(-167.87 -156.95)"/><path class="cls-2" d="M176.26,368.15c3.22,0,3.22-5,0-5s-3.22,5,0,5Z" transform="translate(-167.87 -156.95)"/></svg>